# xmcd
#
# Track frame offsets:
#	150
#	12758
#	35535
#	54453
#	67350
#	78833
#	96390
#	109315
#	121418
#	135695
#	149900
#	162945
#	176828
#	191595
#	210822
#	223797
#	236983
#	250093
#
# Disc length: 3482 seconds
#
# Revision: 2
# Processed by: cddbd v1.5.1PL0 Copyright (c) Steve Scherf et al.
# Submitted via: audiograbber 1.83.01
#
DISCID=130d9812
DTITLE=Various Artist - Legends of Gospel and Blues Vol. 1
DYEAR=1995
DGENRE=Blues
TTITLE0=Golden Gate Quartett - When The Saints Go Marchin In 
TTITLE1=Ella Fitzgerald - Loius Armstrong - Tenderly
TTITLE2=Nina Simone - I Got It Bad And That Ain't Good
TTITLE3=B.B.King - Every Day I Have The Blues
TTITLE4=Roberta Kelly - Swing Low
TTITLE5=John Lee Hooker - Blues Before Sunrise
TTITLE6=Katie Webster - Precious Lord
TTITLE7=Mahalia Jackson - Walk OVer God's Heaven
TTITLE8=Golden Gate Quartett - Go Down Moses
TTITLE9=Roberta Kelly - Jesus Keep Me Near The Cross
TTITLE10=Mahalia Jackson - An Evening Prayer
TTITLE11=Munich Gospel Sound - God Has Smiled On Me
TTITLE12=Billie Holiday - Say It Isn't No
TTITLE13=Ella Fitzgerald - Louis Armstrong - Under The Blanket of Blue
TTITLE14=Dionne Warwick - Trains And Boats And Planes
TTITLE15=Roberta Kelly - Sometimes I Feel Like A Motherless Child
TTITLE16=Muddy Waters - Hoochie Coochie
TTITLE17=Mahalia Jackson - Jesus Met The Woman At The Well
EXTD=
EXTT0=
EXTT1=
EXTT2=
EXTT3=
EXTT4=
EXTT5=
EXTT6=
EXTT7=
EXTT8=
EXTT9=
EXTT10=
EXTT11=
EXTT12=
EXTT13=
EXTT14=
EXTT15=
EXTT16=
EXTT17=
PLAYORDER=
